<svg width="268" height="152" viewBox="0 0 268 152" fill="none" xmlns="http://www.w3.org/2000/svg">
<g filter="url(#filter0_d_141_30)">
<path d="M83.375 65.8125L85.375 64.9375V143.562H28.1875C27.1042 143.562 25.375 143.417 23 143.125C20.6667 142.875 18.2917 142.229 15.875 141.188C13.5 140.188 11.5625 138.583 10.0625 136.375L4.6875 143.562V82.3125L5.0625 80.625C5.27083 79.5 5.6875 78.125 6.3125 76.5C6.97917 74.8333 7.91667 73.1875 9.125 71.5625C10.3333 69.9375 11.875 68.5625 13.75 67.4375C15.6667 66.2708 18.0208 65.6875 20.8125 65.6875C22.2708 65.6875 23.8542 65.8958 25.5625 66.3125C27.3125 66.6875 29.1875 67.3125 31.1875 68.1875L28.5625 68.0625C27.0625 68.0625 25.1667 68.25 22.875 68.625C20.625 69 18.4792 69.8125 16.4375 71.0625C14.4375 72.2708 12.9375 74.1042 11.9375 76.5625L14 75.0625C15.375 74.1042 17.1875 73.1458 19.4375 72.1875C21.7292 71.1875 24.25 70.6875 27 70.6875C28.9167 70.6875 30.875 71.0833 32.875 71.875C34.9167 72.625 36.8958 73.9583 38.8125 75.875L36.3125 75.0625C34.6042 74.5208 32.625 74.25 30.375 74.25C28.75 74.25 27.1042 74.5208 25.4375 75.0625C23.8125 75.5625 22.3333 76.5 21 77.875C19.6667 79.25 18.625 81.2083 17.875 83.75L17.75 123.938L18.0625 125.188C18.2708 126.021 18.7708 126.979 19.5625 128.062C20.3542 129.146 21.625 130.125 23.375 131C25.125 131.875 27.5 132.396 30.5 132.562L56.25 132.938L53.5625 130.75C51.7708 129.292 49.9792 127.312 48.1875 124.812C46.3958 122.354 45.3542 119.521 45.0625 116.312V84L45.5 82.125C45.7917 80.9167 46.2917 79.4167 47 77.625C47.75 75.8333 48.75 74.0625 50 72.3125C51.25 70.5208 52.8333 69.0208 54.75 67.8125C56.6667 66.5625 58.9583 65.9375 61.625 65.9375C63.9167 65.9375 66.5208 66.5417 69.4375 67.75C72.3958 68.9167 75.6875 70.9167 79.3125 73.75L80.375 72.25C81.0417 71.25 82.0417 69.1042 83.375 65.8125ZM71.75 132.688L71.625 87.375C71.75 85.2917 72.125 83.4583 72.75 81.875C73.375 80.2917 74.0625 78.9583 74.8125 77.875C75.5625 76.7917 76.2292 75.9792 76.8125 75.4375L77.6875 74.625C75.3125 74 73.1875 73.6875 71.3125 73.6875C68.2292 73.6875 65.7917 74.3125 64 75.5625C62.2083 76.7708 60.875 78.1667 60 79.75C59.125 81.2917 58.5625 82.6667 58.3125 83.875L57.875 85.6875V132.688H71.75ZM74.75 53.3125C74.8333 53.5208 74.875 53.7708 74.875 54.0625C74.875 54.7292 74.625 55.5 74.125 56.375L67.3125 62.375C67.5625 62.0833 67.6875 61.7708 67.6875 61.4375C67.6875 61.2708 67.6667 61.1042 67.625 60.9375C67.5 60.3542 66.9583 59.5833 66 58.625L61.25 54.1875C61.25 54.8125 61.0208 55.5417 60.5625 56.375L53.75 62.375C54 62.0833 54.125 61.7708 54.125 61.4375C54.125 61.2708 54.1042 61.1042 54.0625 60.9375C53.9375 60.3542 53.3958 59.5833 52.4375 58.625L46.9375 53.4375C46.4375 52.5208 46.1875 51.6875 46.1875 50.9375C46.2292 50.1875 46.6042 49.3125 47.3125 48.3125L52.4375 42.25C52.9375 44.6667 53.6875 46.2917 54.6875 47.125C54.8125 47.1667 54.9167 47.2292 55 47.3125L59.25 50.625C59.4583 50.75 59.625 50.9167 59.75 51.125V50.9375C59.7917 50.5625 59.8958 50.1667 60.0625 49.75C60.2708 49.2917 60.5417 48.8125 60.875 48.3125L66 42.25C66.5833 44.6667 67.3333 46.2917 68.25 47.125C68.375 47.1667 68.4792 47.2292 68.5625 47.3125L72.8125 50.625C73.8542 51.5417 74.5 52.4375 74.75 53.3125ZM129.938 80.4375L135.125 73.4375C135.167 72.9792 135.208 72.5833 135.25 72.25C135.333 71.875 135.438 71.5625 135.562 71.3125C135.688 71.0625 135.812 70.875 135.938 70.75C136.062 70.5833 136.188 70.4583 136.312 70.375C136.479 70.25 136.625 70.1875 136.75 70.1875C136.917 70.1458 137.062 70.125 137.188 70.125C137.396 70.125 137.562 70.1458 137.688 70.1875L137.875 70.25V130.625C136.458 134 134.708 136.625 132.625 138.5C130.542 140.417 128.271 141.729 125.812 142.438C123.396 143.188 120.979 143.562 118.562 143.562C115.938 143.562 113.5 143.292 111.25 142.75C109 142.25 107.188 141.729 105.812 141.188L103.75 140.375C105.792 140.5 107.667 140.562 109.375 140.562C113.208 140.562 116.229 140.292 118.438 139.75C120.646 139.25 122.271 138.667 123.312 138C124.354 137.333 125.021 136.729 125.312 136.188L125.688 135.438C120.896 136.771 116.75 137.542 113.25 137.75C111.75 138.042 110.333 138.188 109 138.188C106.792 138.188 104.833 137.875 103.125 137.25C101.417 136.667 99.9375 135.938 98.6875 135.062C97.4792 134.354 96.625 133.708 96.125 133.125L95.3125 132.312H95.4375C94.7708 131.604 94.2917 131.021 94 130.562L93.5 129.875C96.5833 131.042 99.4167 131.854 102 132.312C104.583 132.812 106.917 133.062 109 133.062C111.083 133.062 112.896 132.896 114.438 132.562C115.979 132.271 117.271 131.917 118.312 131.5C119.354 131.083 120.146 130.708 120.688 130.375L121.438 129.875C121.771 129.292 121.938 128.688 121.938 128.062L122.062 94.0625C122.062 92.5208 122.625 90.8542 123.75 89.0625C124.917 87.2292 126.083 85.6458 127.25 84.3125L128.938 82.375C127.938 82.1667 126.979 82 126.062 81.875C125.146 81.75 124.271 81.6667 123.438 81.625C122.604 81.5417 121.792 81.5 121 81.5C117.583 81.5 114.833 81.9792 112.75 82.9375C110.667 83.8958 109.083 85 108 86.25C106.917 87.4583 106.188 88.5417 105.812 89.5L105.25 90.9375L106.688 116.875C106.438 117.75 106.208 118.188 106 118.188C105.792 118.188 105.625 118.042 105.5 117.75L105.25 117.375C105.417 116.625 105.5 115.958 105.5 115.375C105.5 113.917 105.25 112.812 104.75 112.062L103.938 111C101.521 110.042 99.6042 109 98.1875 107.875C96.7708 106.708 95.7708 105.688 95.1875 104.812L94.3125 103.5V87.9375C94.3125 85.3125 94.8958 83.0833 96.0625 81.25C97.2708 79.4167 98.625 77.9167 100.125 76.75C101.667 75.5833 103.042 74.7292 104.25 74.1875L106 73.4375C109.958 72.3958 113.312 71.875 116.062 71.875C119.104 71.875 121.542 72.3125 123.375 73.1875C125.208 74.0625 126.604 75.0625 127.562 76.1875C128.521 77.2708 129.167 78.25 129.5 79.125L129.938 80.4375ZM147.375 21.8125L147.562 19.625C147.729 18.2083 148.083 16.4792 148.625 14.4375C149.167 12.3542 149.979 10.2708 151.062 8.1875C152.188 6.10417 153.667 4.35417 155.5 2.9375C157.375 1.52083 159.75 0.8125 162.625 0.8125C164.958 0.8125 167.688 1.4375 170.812 2.6875L167.688 3.0625C165.646 3.3125 163.542 4.02083 161.375 5.1875C159.208 6.35417 157.833 8.22917 157.25 10.8125L159.188 9.5C160.521 8.66667 162.25 7.83333 164.375 7C166.5 6.16667 168.729 5.75 171.062 5.75C173.229 5.75 175.354 6.33333 177.438 7.5C179.521 8.66667 181.354 10.7708 182.938 13.8125C184.396 16.7292 185.125 19.7708 185.125 22.9375C185.125 24.4375 184.958 25.9167 184.625 27.375C184.208 29.2917 183.396 31.1667 182.188 33C181.021 34.8333 179.271 36.375 176.938 37.625C174.604 38.875 171.479 39.5 167.562 39.5H167.062L168.5 39.25C169.458 39.0833 170.625 38.75 172 38.25C173.375 37.7083 174.75 36.9167 176.125 35.875C177.5 34.8333 178.667 33.4792 179.625 31.8125C180.583 30.1042 181.062 27.9792 181.062 25.4375C181.062 24.7708 181.021 24.0625 180.938 23.3125L180.688 22.1875C180.521 21.4792 180.062 20.6458 179.312 19.6875C178.604 18.7292 177.438 17.875 175.812 17.125C174.229 16.3333 172.042 15.8333 169.25 15.625H168.562C166.354 15.625 164.604 16.125 163.312 17.125C162.021 18.0833 161.062 19.2708 160.438 20.6875C159.812 22.0625 159.417 23.4375 159.25 24.8125C159.083 26.1458 159 27.1875 159 27.9375V30.625L159.25 143.75C155.917 143.75 153.062 142.562 150.688 140.188C148.312 137.812 147.125 134.958 147.125 131.625V127.875C147.083 127.542 147.062 127.188 147.062 126.812L147.375 21.8125ZM262.438 113.312C263.312 116.729 263.75 119.792 263.75 122.5C263.75 126.083 263.167 129.104 262 131.562C261.125 134.188 259.688 136.354 257.688 138.062C255.729 139.854 253.542 141.208 251.125 142.125C248.75 143.042 246.271 143.5 243.688 143.5H193.375V143.625H181V143.562C180.25 143.604 179.542 143.625 178.875 143.625C175.25 143.625 172.229 143.354 169.812 142.812C167.438 142.271 165.542 141.625 164.125 140.875C162.75 140.125 161.708 139.354 161 138.562C160.333 137.812 159.896 137.167 159.688 136.625L159.438 135.812C160.229 137.021 161.438 137.812 163.062 138.188C164.729 138.562 166.292 138.75 167.75 138.75C169.542 138.75 170.583 138.688 170.875 138.562C169.042 138.396 167.458 138.083 166.125 137.625C164.792 137.208 163.667 136.646 162.75 135.938C161.833 135.271 161.104 134.542 160.562 133.75C160.062 133 159.667 132.229 159.375 131.438C159.083 130.688 158.896 129.958 158.812 129.25C158.729 128.583 158.688 128.021 158.688 127.562C158.688 126.938 158.708 126.604 158.75 126.562C160.375 128.729 162.271 130.312 164.438 131.312C166.604 132.354 168.625 133 170.5 133.25C172.417 133.5 173.708 133.625 174.375 133.625H181.188L181.375 111C181.375 106.333 183.229 102.104 186.938 98.3125C188.396 96.8958 190.042 95.8333 191.875 95.125L193.375 89.0625V103.188C197.167 100.479 201.271 99.125 205.688 99.125H262.812L256.438 100.5C256.104 101.25 255.688 101.979 255.188 102.688C256.104 103.271 256.938 103.917 257.688 104.625C260.271 106.833 261.854 109.729 262.438 113.312ZM193.375 110.75V112.188L193.438 112.25C193.521 111.958 193.562 111.708 193.562 111.5C193.562 111.208 193.5 110.958 193.375 110.75ZM247.188 131.25C249.896 130.125 251.812 128.667 252.938 126.875C254.062 125.125 254.646 123.292 254.688 121.375C254.646 119.542 254.104 117.771 253.062 116.062L251.062 113.75C250.021 112.833 248.708 112.042 247.125 111.375C245.208 110.708 243.25 110.375 241.25 110.375L225.125 110.25L208.125 110.375C206.083 110.375 204.062 110.75 202.062 111.5C200.104 112.292 198.562 113.292 197.438 114.5C196.354 115.667 195.604 116.958 195.188 118.375C194.771 119.792 194.562 121.167 194.562 122.5C194.562 124.667 194.854 126.562 195.438 128.188L196.312 130.625C195.104 129.583 194.125 128.583 193.375 127.625V141.188C194.125 139.854 195.083 138.688 196.25 137.688C200.208 134.229 204.604 132.5 209.438 132.5L241.25 132.375C243.333 132.375 245.312 132 247.188 131.25Z" fill="black"/>

</g>
<defs>
<filter id="filter0_d_141_30" x="0.6875" y="0.8125" width="267.062" height="150.938" filterUnits="userSpaceOnUse" color-interpolation-filters="sRGB">
<feFlood flood-opacity="0" result="BackgroundImageFix"/>
<feColorMatrix in="SourceAlpha" type="matrix" values="0 0 0 0 0 0 0 0 0 0 0 0 0 0 0 0 0 0 127 0" result="hardAlpha"/>
<feOffset dy="4"/>
<feGaussianBlur stdDeviation="2"/>
<feComposite in2="hardAlpha" operator="out"/>
<feColorMatrix type="matrix" values="0 0 0 0 0 0 0 0 0 0 0 0 0 0 0 0 0 0 0.25 0"/>
<feBlend mode="normal" in2="BackgroundImageFix" result="effect1_dropShadow_141_30"/>
<feBlend mode="normal" in="SourceGraphic" in2="effect1_dropShadow_141_30" result="shape"/>
</filter>
</defs>
</svg>
