<svg width="252" height="127" viewBox="0 0 252 127" fill="none" xmlns="http://www.w3.org/2000/svg">
<path d="M73.6875 82.8125C73.6875 95.6042 71.6875 105.333 67.6875 112C61.8542 121.708 51.4792 126.562 36.5625 126.562C26.1875 126.562 17.9167 124.583 11.75 120.625C4.375 115.875 0.6875 108.583 0.6875 98.75C0.6875 93.9167 1.66667 88.2708 3.625 81.8125C5.95833 74.1458 8.5625 70.3125 11.4375 70.3125C13.1875 70.3125 14.3125 71.0833 14.8125 72.625C15.0625 73.4167 15.1875 74.9167 15.1875 77.125C15.1875 78.1667 14.9375 79.8125 14.4375 82.0625C13.9375 84.3125 13.6875 86 13.6875 87.125C13.6875 95.375 21.9583 99.5 38.5 99.5C49.7083 99.5 57.2292 98.0833 61.0625 95.25C61.8542 94.6667 62.25 94.1042 62.25 93.5625C62.25 92.4792 60.625 91.9375 57.375 91.9375C49.5417 91.9375 44.2292 91.1458 41.4375 89.5625C38.1875 87.7292 36.5625 84.1042 36.5625 78.6875C36.5625 70.6042 38.2083 63.1667 41.5 56.375C45.1667 48.8333 49.6458 45.0625 54.9375 45.0625C67.4375 45.0625 73.6875 57.6458 73.6875 82.8125ZM61.0625 68.9375C61.0625 67.5625 60.0625 66.2917 58.0625 65.125C56.2708 64.0417 54.6458 63.5 53.1875 63.5C49.3958 63.5 47.5 64.9375 47.5 67.8125C47.5 69.3958 49.8542 70.1875 54.5625 70.1875C58.8958 70.1875 61.0625 69.7708 61.0625 68.9375ZM70.5625 26.875C71.1458 27.3333 71.1458 27.8542 70.5625 28.4375L63.125 35.75C62.5833 36.2917 62.0417 36.2917 61.5 35.75L54.5 28.9375L47.625 35.75C47.0833 36.2917 46.5417 36.2917 46 35.75L38.5 28.5C37.9167 27.9167 37.9792 27.2708 38.6875 26.5625L45.5 19.625C46.125 18.9583 46.7917 18.9583 47.5 19.625L54.5 26.3125L61.0625 19.625C61.6875 19 62.3333 19 63 19.625L70.5625 26.875ZM134.375 64.25C134.375 84.625 124.854 94.8125 105.812 94.8125C89.6458 94.8125 81.5625 87.7917 81.5625 73.75C81.5625 68.2083 82.6458 63.0417 84.8125 58.25C85.6875 56.3333 86.8542 55.375 88.3125 55.375C89.8542 55.375 90.9583 56.5625 91.625 58.9375C92.6667 62.8125 94.125 65.25 96 66.25C98.0833 67.375 102.438 67.9375 109.062 67.9375C117.271 67.9375 121.375 66.9375 121.375 64.9375C121.375 64.1042 120.75 63.0417 119.5 61.75C115 57.0833 107.167 51.8125 96 45.9375L105.812 25.0625C106.396 23.8542 106.958 23.25 107.5 23.25C107.833 23.25 108.375 23.4375 109.125 23.8125C113.667 26.1042 118.25 29.8958 122.875 35.1875C130.542 43.9375 134.375 53.625 134.375 64.25ZM174.812 94.875H168.062C152.438 94.875 144.625 86.7083 144.625 70.375C144.625 63.4167 144.375 54.2708 143.875 42.9375C143.333 30.9792 142.771 23.0625 142.188 19.1875C141.896 17.2708 142.229 15.8958 143.188 15.0625L161.375 2.25C162.625 1.375 163.479 0.9375 163.938 0.9375C164.479 0.9375 164.75 1.4375 164.75 2.4375V57.5C164.75 63.5833 167.438 66.625 172.812 66.625H174.812V94.875ZM251.438 54C251.438 63 248.292 71.5417 242 79.625C234.208 89.625 223.792 94.625 210.75 94.625C206.833 94.625 202.771 93.9792 198.562 92.6875C193.771 91.2292 190.333 89.3125 188.25 86.9375C184.875 92.2708 180.958 94.9375 176.5 94.9375H171.125V66.5625H175.75C178.417 66.5625 180.417 65.3125 181.75 62.8125C182.042 62.2708 182.854 59.9167 184.188 55.75C184.979 53.25 186.062 52 187.438 52C189.062 52 190.542 54.3333 191.875 59C193.25 63.6667 194.917 66 196.875 66C197.208 66 199.438 63.5 203.562 58.5C208.479 52.5417 213.021 47.9167 217.188 44.625C223.521 39.625 229.438 37.125 234.938 37.125C240.188 37.125 244.354 39.0208 247.438 42.8125C250.104 46.1042 251.438 49.8333 251.438 54ZM235.25 63.25C235.25 58.4583 232.396 56.0625 226.688 56.0625C221.104 56.0625 213.917 60.3958 205.125 69.0625C207.042 69.1458 208.917 69.1875 210.75 69.1875C218.292 69.1875 224.438 68.4792 229.188 67.0625C233.229 65.8542 235.25 64.5833 235.25 63.25Z" fill="black"/>
</svg>
