<svg width="99" height="112" viewBox="0 0 99 112" fill="none" xmlns="http://www.w3.org/2000/svg">
<path d="M74.5868 59.4899L99 86.5675C92.6891 92.334 78.6723 104.995 73.0921 109.508C67.512 114.021 59.8061 111.389 56.6506 109.508C41.0395 95.7187 9.02002 67.4628 5.83136 64.755C1.84554 61.3703 1.34731 59.4899 0.350854 54.977C-0.645602 50.4641 0.849082 6.83918 0.350854 3.83057C-0.147374 0.821951 2.34377 -0.30628 3.34022 0.0697966C4.33668 0.445874 21.7747 13.2325 22.2729 13.2325C22.7711 13.2325 36.2233 10.5999 39.7109 9.47168C43.1985 8.34345 49.6754 9.84776 51.1701 10.5999C52.6648 11.3521 26.2587 26.3951 38.2162 56.4813C50.9708 79.9485 67.7777 68.2651 74.5868 59.4899Z" fill="url(#paint0_linear_68_158)"/>
<defs>
<linearGradient id="paint0_linear_68_158" x1="49.5" y1="0" x2="49.5" y2="112" gradientUnits="userSpaceOnUse">
<stop offset="0.116667" stop-color="#00B2C2"/>
<stop offset="0.411667" stop-color="#901099" stop-opacity="0.73"/>
<stop offset="0.826667" stop-color="#430B46" stop-opacity="0.76"/>
</linearGradient>
</defs>
</svg>
