<svg width="76" height="81" viewBox="0 0 76 81" fill="none" xmlns="http://www.w3.org/2000/svg">
<path d="M42.3758 62.8588L58.0364 81C62.3354 76.5252 71.2097 67.503 72.3152 67.2127C73.4206 66.9225 75.2323 61.5285 76 58.8678V28.3906V2.26733C76 -0.0547435 74.1576 -0.151497 73.2364 0.0903855C65.8667 5.53274 51.0351 16.4174 50.6667 16.4174C50.2061 16.4174 36.8485 13.5148 36.3879 13.5148C35.9273 13.5148 32.2424 12.7892 29.4788 13.152C26.7152 13.5148 24.8727 13.8777 18.8848 17.8687C17.9636 18.5944 11.2081 26.4555 7.8303 30.9304C5.52727 33.9539 0.829091 40.2187 0.460606 41.0894C0.0921212 41.9602 0 45.5643 0 47.2574C0 49.7972 1.01333 55.4572 5.06667 57.7793C9.12 60.1014 12.897 58.505 14.2788 57.4165L25.7939 44.7177L29.4788 49.0716L32.703 49.7972C34.3919 50.281 38.6909 50.2326 42.3758 46.1689C46.9818 41.0894 49.7455 45.4433 49.7455 46.1689C49.7455 46.8946 53.4303 52.6998 49.7455 57.0536C46.7976 60.5368 43.604 62.3751 42.3758 62.8588Z" fill="url(#paint0_linear_68_159)"/>
<defs>
<linearGradient id="paint0_linear_68_159" x1="38" y1="0" x2="38" y2="81" gradientUnits="userSpaceOnUse">
<stop offset="0.07" stop-color="#00B2C2"/>
<stop offset="0.555" stop-color="#901099" stop-opacity="0.75"/>
<stop offset="0.85" stop-color="#430B46" stop-opacity="0.81"/>
</linearGradient>
</defs>
</svg>
